<svg width="340" height="160" xmlns="http://www.w3.org/2000/svg"><style>ellipse.red,rect.red{fill:#f99}ellipse.yellow,rect.yellow{fill:#ff9}ellipse.green,rect.green{fill:#9f9}ellipse.teal,rect.teal{fill:#9ff}ellipse.blue,rect.blue{fill:#99f}ellipse.purple,rect.purple{fill:#f9f}ellipse,line,path,rect{stroke-width:2;stroke:#000}text{text-anchor:middle;font-family:Helvetica,Arial,sans-serif;font-size:22px;fill:#000}ellipse{fill:#fff}</style><g transform="translate(170 30)"><path d="M0 0l-90 50" fill="none" stroke-width="2"/><path d="M0 0l90 50" fill="none" stroke-width="2"/><ellipse ry="20" rx="20" class="red"/><text y="7">5</text></g><g transform="translate(80 80)"><path d="M0 0l-50 50" fill="none" stroke-width="2"/><path d="M0 0l50 50" fill="none" stroke-width="2"/><ellipse ry="20" rx="20" class="green"/><text y="7">3</text><g transform="translate(-50 50)"><ellipse ry="20" rx="20" class="blue"/><text y="7">1</text></g><g transform="translate(50 50)"><ellipse ry="20" rx="20" class="blue"/><text y="7">4</text></g></g><g transform="translate(260 80)"><path d="M0 0l-50 50" fill="none" stroke-width="2"/><path d="M0 0l50 50" fill="none" stroke-width="2"/><ellipse ry="20" rx="20" class="green"/><text y="7">8</text><g transform="translate(-50 50)"><ellipse ry="20" rx="20" class="blue"/><text y="7">6</text></g><g transform="translate(50 50)"><ellipse ry="20" rx="20" class="blue"/><text y="7">9</text></g></g></svg>